<svg xmlns="http://www.w3.org/2000/svg" xmlns:xlink="http://www.w3.org/1999/xlink" width="1080" zoomAndPan="magnify" viewBox="0 0 810 1439.999935" height="1920" preserveAspectRatio="xMidYMid meet" version="1.0"><rect x="-81" width="972" fill="#ffffff" y="-143.999994" height="1727.999922" fill-opacity="1"/><rect x="-81" width="972" fill="#ffffff" y="-143.999994" height="1727.999922" fill-opacity="1"/><rect x="-81" width="972" fill="#ffffff" y="-143.999994" height="1727.999922" fill-opacity="1"/><path fill="#ceb89c" d="M 10.484375 -27.433594 L 953.25 -27.433594 C 963.390625 -27.433594 973.117188 -23.402344 980.289062 -16.230469 C 987.460938 -9.058594 991.492188 0.667969 991.492188 10.8125 L 991.492188 1514.5625 C 991.492188 1524.703125 987.460938 1534.433594 980.289062 1541.605469 C 973.117188 1548.777344 963.390625 1552.808594 953.25 1552.808594 L 10.484375 1552.808594 C 0.339844 1552.808594 -9.386719 1548.777344 -16.558594 1541.605469 C -23.730469 1534.433594 -27.757812 1524.703125 -27.757812 1514.5625 L -27.757812 10.8125 C -27.757812 0.667969 -23.730469 -9.058594 -16.558594 -16.230469 C -9.386719 -23.402344 0.339844 -27.433594 10.484375 -27.433594 " fill-opacity="1" fill-rule="nonzero"/></svg>